<svg width="336" height="28" viewBox="0 0 336 28" fill="none" xmlns="http://www.w3.org/2000/svg">
<path d="M16.8455 26.4065L43.4797 0H28.1138L28.1132 0.000562967C21.9954 0.0608008 17.0327 4.94763 16.8507 11.0356L16.8455 11.0407V26.4065Z" fill="url(#paint0_radial_903_1685)"/>
<path d="M14.9106 0.227642V26.5203L7.62602 19.2358V19.2355C7.49435 19.1031 7.40813 19.0149 7.33357 18.9341C4.43475 15.7946 4.43475 10.9547 7.33357 7.81523C7.40813 7.73447 7.49435 7.64623 7.62602 7.5139V7.51219L14.9106 0.227642Z" fill="url(#paint1_radial_903_1685)"/>
<path d="M0 14.4553L13.5447 28H5.69106L5.6865 27.9954C2.60055 27.8748 0.125218 25.3994 0.00455199 22.3135L0 22.3089V14.4553Z" fill="url(#paint2_radial_903_1685)"/>
<path d="M55.7724 28H18.2114L29.0353 17.3008C33.5578 13.2926 40.3855 13.2926 44.908 17.3008L55.7724 28Z" fill="url(#paint3_radial_903_1685)"/>
<path d="M78.4633 5.23578C72.2699 5.23578 67.6099 10.2118 67.6099 16.3566C67.6099 18.8499 68.3697 21.1639 69.6807 23.0232L69.85 23.2632L71.8254 21.5489L71.6942 21.354C70.6844 19.8538 70.2227 18.3297 70.2227 16.3566C70.2227 13.8271 71.0432 11.703 72.4723 10.2131C73.9002 8.72429 75.9548 7.84864 78.4633 7.84864C80.5154 7.84864 81.9725 8.39367 83.381 9.5437L83.5614 9.69096L85.4619 7.90171L85.2393 7.70926C83.4367 6.15083 81.1146 5.23578 78.4633 5.23578Z" fill="url(#paint4_linear_903_1685)"/>
<path d="M98.5756 5.6756H95.8106L103.793 28L105.215 24.2952L104.111 21.1695L104.111 21.1686L98.5756 5.6756Z" fill="url(#paint5_linear_903_1685)"/>
<path d="M112.367 5.6756H109.567L104.649 18.4586L105.993 22.2302L112.367 5.6756Z" fill="url(#paint6_linear_903_1685)"/>
<path d="M226.099 5.6756H223.334L231.316 28L232.738 24.2952L231.634 21.1695L231.634 21.1686L226.099 5.6756Z" fill="url(#paint7_linear_903_1685)"/>
<path d="M239.89 5.6756H237.09L232.172 18.4586L233.516 22.2302L239.89 5.6756Z" fill="url(#paint8_linear_903_1685)"/>
<path d="M134.372 6.11546H119.149V8.72832H134.372V6.11546Z" fill="url(#paint9_linear_903_1685)"/>
<path d="M150.492 6.11546H141.275V8.72832H150.492C152.314 8.72832 153.525 9.25482 154.281 10.0212C155.039 10.7894 155.372 11.8316 155.372 12.9242C155.372 14.005 155.052 15.0371 154.455 15.7931C153.864 16.543 152.995 17.0304 151.861 17.0304H146.574L155.756 27.4656H159.228L152.343 19.6265C155.978 19.3628 157.985 16.1238 157.985 12.9242C157.985 11.2323 157.431 9.52681 156.205 8.24241C154.976 6.95451 153.095 6.11546 150.492 6.11546Z" fill="url(#paint10_linear_903_1685)"/>
<path d="M172.054 6.11546H165.81V8.72832H172.054C174.807 8.72832 176.581 9.40161 177.708 10.3871C179.232 11.743 179.878 13.9129 179.878 16.4336C179.878 19.1337 179.172 21.5729 177.526 23.0777C176.337 24.1533 174.562 24.8528 171.965 24.8528H165.81V27.4656H171.965C175.23 27.4656 177.617 26.5272 179.281 25.0172L179.281 25.017C181.649 22.8644 182.491 19.5942 182.491 16.4336C182.491 13.4212 181.708 10.4162 179.426 8.41217L179.425 8.41117C177.789 6.99077 175.401 6.11546 172.054 6.11546Z" fill="url(#paint11_linear_903_1685)"/>
<path d="M198.612 6.11546H189.394V8.72832H198.612C200.433 8.72832 201.645 9.25482 202.401 10.0212C203.159 10.7894 203.492 11.8316 203.492 12.9242C203.492 14.005 203.171 15.0371 202.575 15.7931C201.983 16.543 201.114 17.0304 199.98 17.0304H194.694L203.875 27.4656H207.347L200.462 19.6265C204.097 19.3628 206.105 16.1238 206.105 12.9242C206.105 11.2323 205.551 9.52681 204.325 8.24241C203.095 6.95451 201.214 6.11546 198.612 6.11546Z" fill="url(#paint12_linear_903_1685)"/>
<path d="M216.542 6.11546H213.929V27.4656H216.542V6.11546Z" fill="url(#paint13_linear_903_1685)"/>
<path d="M261.895 6.11546H246.672V8.72832H261.895V6.11546Z" fill="url(#paint14_linear_903_1685)"/>
<path d="M86.9483 9.60133L86.7719 9.3512L84.8379 11.1736L84.9652 11.3608C85.9432 12.7991 86.4062 14.3518 86.4062 16.3566C86.4062 18.9516 85.6341 21.0912 84.2679 22.5791C82.904 24.0645 80.9261 24.9247 78.4633 24.9247C76.3245 24.9247 74.778 24.3218 73.3084 23.1113L73.1223 22.958L71.2616 24.8193L71.4803 25.0057C73.3419 26.5929 75.7526 27.5376 78.4633 27.5376C84.6371 27.5376 89.0191 22.5507 89.0191 16.3566C89.0191 13.8058 88.2601 11.4622 86.9483 9.60133Z" fill="url(#paint15_linear_903_1685)"/>
<path d="M133.42 15.4248H119.149V27.4656H134.223V24.8528H121.761V18.0377H133.42V15.4248Z" fill="url(#paint16_linear_903_1685)"/>
<path d="M260.943 15.4248H246.672V27.4656H261.746V24.8528H249.285V18.0377H260.943V15.4248Z" fill="url(#paint17_linear_903_1685)"/>
<path d="M143.888 17.209H141.275V27.4656H143.888V17.209Z" fill="url(#paint18_linear_903_1685)"/>
<path d="M192.007 17.209H189.394V27.4656H192.007V17.209Z" fill="url(#paint19_linear_903_1685)"/>
<defs>
<radialGradient id="paint0_radial_903_1685" cx="0" cy="0" r="1" gradientUnits="userSpaceOnUse" gradientTransform="translate(15.0244 28) scale(40.065 50.7143)">
<stop offset="0.45" stop-color="#FF4305"/>
<stop offset="1" stop-color="#BB1B05"/>
</radialGradient>
<radialGradient id="paint1_radial_903_1685" cx="0" cy="0" r="1" gradientUnits="userSpaceOnUse" gradientTransform="translate(15.0244 28) scale(40.065 50.7143)">
<stop offset="0.45" stop-color="#FF4305"/>
<stop offset="1" stop-color="#BB1B05"/>
</radialGradient>
<radialGradient id="paint2_radial_903_1685" cx="0" cy="0" r="1" gradientUnits="userSpaceOnUse" gradientTransform="translate(15.0244 28) scale(40.065 50.7143)">
<stop offset="0.45" stop-color="#FF4305"/>
<stop offset="1" stop-color="#BB1B05"/>
</radialGradient>
<radialGradient id="paint3_radial_903_1685" cx="0" cy="0" r="1" gradientUnits="userSpaceOnUse" gradientTransform="translate(15.0244 28) scale(40.065 50.7143)">
<stop offset="0.45" stop-color="#FF4305"/>
<stop offset="1" stop-color="#BB1B05"/>
</radialGradient>
<linearGradient id="paint4_linear_903_1685" x1="67.6099" y1="16.6179" x2="261.895" y2="16.6179" gradientUnits="userSpaceOnUse">
<stop stop-color="#BC1B06"/>
<stop offset="1" stop-color="#1D2939"/>
</linearGradient>
<linearGradient id="paint5_linear_903_1685" x1="67.6099" y1="16.6179" x2="261.895" y2="16.6179" gradientUnits="userSpaceOnUse">
<stop stop-color="#BC1B06"/>
<stop offset="1" stop-color="#1D2939"/>
</linearGradient>
<linearGradient id="paint6_linear_903_1685" x1="67.6099" y1="16.6179" x2="261.895" y2="16.6179" gradientUnits="userSpaceOnUse">
<stop stop-color="#BC1B06"/>
<stop offset="1" stop-color="#1D2939"/>
</linearGradient>
<linearGradient id="paint7_linear_903_1685" x1="67.6099" y1="16.6179" x2="261.895" y2="16.6179" gradientUnits="userSpaceOnUse">
<stop stop-color="#BC1B06"/>
<stop offset="1" stop-color="#1D2939"/>
</linearGradient>
<linearGradient id="paint8_linear_903_1685" x1="67.6099" y1="16.6179" x2="261.895" y2="16.6179" gradientUnits="userSpaceOnUse">
<stop stop-color="#BC1B06"/>
<stop offset="1" stop-color="#1D2939"/>
</linearGradient>
<linearGradient id="paint9_linear_903_1685" x1="67.6099" y1="16.6179" x2="261.895" y2="16.6179" gradientUnits="userSpaceOnUse">
<stop stop-color="#BC1B06"/>
<stop offset="1" stop-color="#1D2939"/>
</linearGradient>
<linearGradient id="paint10_linear_903_1685" x1="67.6099" y1="16.6179" x2="261.895" y2="16.6179" gradientUnits="userSpaceOnUse">
<stop stop-color="#BC1B06"/>
<stop offset="1" stop-color="#1D2939"/>
</linearGradient>
<linearGradient id="paint11_linear_903_1685" x1="67.6099" y1="16.6179" x2="261.895" y2="16.6179" gradientUnits="userSpaceOnUse">
<stop stop-color="#BC1B06"/>
<stop offset="1" stop-color="#1D2939"/>
</linearGradient>
<linearGradient id="paint12_linear_903_1685" x1="67.6099" y1="16.6179" x2="261.895" y2="16.6179" gradientUnits="userSpaceOnUse">
<stop stop-color="#BC1B06"/>
<stop offset="1" stop-color="#1D2939"/>
</linearGradient>
<linearGradient id="paint13_linear_903_1685" x1="67.6099" y1="16.6179" x2="261.895" y2="16.6179" gradientUnits="userSpaceOnUse">
<stop stop-color="#BC1B06"/>
<stop offset="1" stop-color="#1D2939"/>
</linearGradient>
<linearGradient id="paint14_linear_903_1685" x1="67.6099" y1="16.6179" x2="261.895" y2="16.6179" gradientUnits="userSpaceOnUse">
<stop stop-color="#BC1B06"/>
<stop offset="1" stop-color="#1D2939"/>
</linearGradient>
<linearGradient id="paint15_linear_903_1685" x1="67.6099" y1="16.6179" x2="261.895" y2="16.6179" gradientUnits="userSpaceOnUse">
<stop stop-color="#BC1B06"/>
<stop offset="1" stop-color="#1D2939"/>
</linearGradient>
<linearGradient id="paint16_linear_903_1685" x1="67.6099" y1="16.6179" x2="261.895" y2="16.6179" gradientUnits="userSpaceOnUse">
<stop stop-color="#BC1B06"/>
<stop offset="1" stop-color="#1D2939"/>
</linearGradient>
<linearGradient id="paint17_linear_903_1685" x1="67.6099" y1="16.6179" x2="261.895" y2="16.6179" gradientUnits="userSpaceOnUse">
<stop stop-color="#BC1B06"/>
<stop offset="1" stop-color="#1D2939"/>
</linearGradient>
<linearGradient id="paint18_linear_903_1685" x1="67.6099" y1="16.6179" x2="261.895" y2="16.6179" gradientUnits="userSpaceOnUse">
<stop stop-color="#BC1B06"/>
<stop offset="1" stop-color="#1D2939"/>
</linearGradient>
<linearGradient id="paint19_linear_903_1685" x1="67.6099" y1="16.6179" x2="261.895" y2="16.6179" gradientUnits="userSpaceOnUse">
<stop stop-color="#BC1B06"/>
<stop offset="1" stop-color="#1D2939"/>
</linearGradient>
</defs>
</svg>
