<svg width="336" height="28" viewBox="0 0 336 28" fill="none" xmlns="http://www.w3.org/2000/svg">
<path d="M16.8455 26.4065L43.4797 0H28.1138L28.1132 0.000562967C21.9954 0.0608008 17.0327 4.94763 16.8507 11.0356L16.8455 11.0407V26.4065Z" fill="url(#paint0_radial_383_75)"/>
<path d="M14.9106 0.227642V26.5203L7.62602 19.2358V19.2355C7.49435 19.1031 7.40813 19.0149 7.33357 18.9341C4.43475 15.7946 4.43475 10.9547 7.33357 7.81523C7.40813 7.73447 7.49435 7.64623 7.62602 7.5139V7.51219L14.9106 0.227642Z" fill="url(#paint1_radial_383_75)"/>
<path d="M0 14.4553L13.5447 28H5.69106L5.6865 27.9954C2.60055 27.8748 0.125218 25.3994 0.00455199 22.3135L0 22.3089V14.4553Z" fill="url(#paint2_radial_383_75)"/>
<path d="M55.7724 28H18.2114L29.0353 17.3008C33.5578 13.2926 40.3855 13.2926 44.908 17.3008L55.7724 28Z" fill="url(#paint3_radial_383_75)"/>
<path d="M80.9591 0C73.3412 0 67.6094 6.12053 67.6094 13.6787C67.6094 16.7453 68.544 19.5917 70.1565 21.8785L70.3647 22.1737L72.7945 20.0651L72.6332 19.8254C71.3911 17.9801 70.8232 16.1055 70.8232 13.6787C70.8232 10.5674 71.8324 7.95473 73.5901 6.12209C75.3465 4.29086 77.8737 3.21382 80.9591 3.21382C83.4832 3.21382 85.2754 3.88421 87.0079 5.29874L87.2297 5.47988L89.5674 3.27909L89.2936 3.04238C87.0764 1.12551 84.2202 0 80.9591 0Z" fill="#FFF4ED"/>
<path d="M105.697 0.540974H102.296L112.114 28L113.863 23.4431L112.506 19.5985L112.505 19.5974L105.697 0.540974Z" fill="#FFF4ED"/>
<path d="M122.661 0.540974H119.217L113.167 16.264L114.82 20.9031L122.661 0.540974Z" fill="#FFF4ED"/>
<path d="M262.551 0.540974H259.15L268.968 28L270.717 23.4431L269.359 19.5985L269.359 19.5974L262.551 0.540974Z" fill="#FFF4ED"/>
<path d="M279.514 0.540974H276.07L270.021 16.264L271.674 20.9031L279.514 0.540974Z" fill="#FFF4ED"/>
<path d="M149.727 1.082H131.002V4.29582H149.727V1.082Z" fill="#FFF4ED"/>
<path d="M169.555 1.082H158.217V4.29582H169.555C171.796 4.29582 173.285 4.94342 174.215 5.88601C175.148 6.83099 175.557 8.11282 175.557 9.45681C175.557 10.7862 175.163 12.0557 174.429 12.9855C173.702 13.9079 172.633 14.5074 171.238 14.5074H164.736L176.029 27.3427H180.3L171.831 17.7005C176.303 17.3762 178.771 13.3923 178.771 9.45681C178.771 7.37572 178.09 5.27797 176.582 3.69816C175.07 2.11404 172.756 1.082 169.555 1.082Z" fill="#FFF4ED"/>
<path d="M196.075 1.082H188.396V4.29582H196.075C199.461 4.29582 201.644 5.12398 203.03 6.33617C204.905 8.00385 205.699 10.6728 205.699 13.7733C205.699 17.0944 204.831 20.0946 202.806 21.9455C201.343 23.2685 199.161 24.1289 195.966 24.1289H188.396V27.3427H195.966C199.982 27.3427 202.918 26.1884 204.964 24.3311L204.965 24.3309C207.877 21.6832 208.913 17.6609 208.913 13.7733C208.913 10.0681 207.95 6.37192 205.144 3.90696L205.142 3.90573C203.13 2.15863 200.193 1.082 196.075 1.082Z" fill="#FFF4ED"/>
<path d="M228.741 1.082H217.404V4.29582H228.741C230.982 4.29582 232.472 4.94342 233.402 5.88601C234.334 6.83099 234.744 8.11282 234.744 9.45681C234.744 10.7862 234.35 12.0557 233.616 12.9855C232.888 13.9079 231.819 14.5074 230.425 14.5074H223.922L235.215 27.3427H239.487L231.018 17.7005C235.489 17.3762 237.958 13.3923 237.958 9.45681C237.958 7.37572 237.277 5.27797 235.769 3.69816C234.256 2.11404 231.943 1.082 228.741 1.082Z" fill="#FFF4ED"/>
<path d="M250.796 1.082H247.582V27.3427H250.796V1.082Z" fill="#FFF4ED"/>
<path d="M306.58 1.082H287.855V4.29582H306.58V1.082Z" fill="#FFF4ED"/>
<path d="M91.3956 5.36963L91.1787 5.06196L88.7998 7.3035L88.9564 7.5338C90.1594 9.30288 90.7289 11.2128 90.7289 13.6787C90.7289 16.8705 89.7792 19.5021 88.0988 21.3323C86.4211 23.1594 83.9884 24.2174 80.9591 24.2174C78.3284 24.2174 76.4262 23.4759 74.6185 21.9869L74.3896 21.7984L72.101 24.0877L72.3701 24.3171C74.6598 26.2692 77.625 27.4312 80.9591 27.4312C88.5529 27.4312 93.9428 21.2974 93.9428 13.6787C93.9428 10.5411 93.0091 7.65848 91.3956 5.36963Z" fill="#FFF4ED"/>
<path d="M148.556 12.5325H131.002V27.3427H149.543V24.1289H134.216V15.7463H148.556V12.5325Z" fill="#FFF4ED"/>
<path d="M305.409 12.5325H287.855V27.3427H306.397V24.1289H291.069V15.7463H305.409V12.5325Z" fill="#FFF4ED"/>
<path d="M161.431 14.7271H158.217V27.3427H161.431V14.7271Z" fill="#FFF4ED"/>
<path d="M220.618 14.7271H217.404V27.3427H220.618V14.7271Z" fill="#FFF4ED"/>
<defs>
<radialGradient id="paint0_radial_383_75" cx="0" cy="0" r="1" gradientUnits="userSpaceOnUse" gradientTransform="translate(15.0244 28) scale(40.065 50.7143)">
<stop offset="0.45" stop-color="#FF4305"/>
<stop offset="1" stop-color="#BB1B05"/>
</radialGradient>
<radialGradient id="paint1_radial_383_75" cx="0" cy="0" r="1" gradientUnits="userSpaceOnUse" gradientTransform="translate(15.0244 28) scale(40.065 50.7143)">
<stop offset="0.45" stop-color="#FF4305"/>
<stop offset="1" stop-color="#BB1B05"/>
</radialGradient>
<radialGradient id="paint2_radial_383_75" cx="0" cy="0" r="1" gradientUnits="userSpaceOnUse" gradientTransform="translate(15.0244 28) scale(40.065 50.7143)">
<stop offset="0.45" stop-color="#FF4305"/>
<stop offset="1" stop-color="#BB1B05"/>
</radialGradient>
<radialGradient id="paint3_radial_383_75" cx="0" cy="0" r="1" gradientUnits="userSpaceOnUse" gradientTransform="translate(15.0244 28) scale(40.065 50.7143)">
<stop offset="0.45" stop-color="#FF4305"/>
<stop offset="1" stop-color="#BB1B05"/>
</radialGradient>
</defs>
</svg>
